# xmcd CD database file
# Copyright (C) 1995-1998 Ti Kan
#
# Track frame offsets:
#	150
#	16232
#	32445
#	49272
#	67082
#	81927
#	101355
#	116305
#	128572
#	147700
#	165775
#	182805
#	197152
#	217102
#	236895
#	250185
#	265847
#	284020
#	300682
#	320952
#
# Disc length: 4535 seconds
#
# Revision: 2
# Processed by: cddbd v1.4b42PL1 Copyright (c) Steve Scherf et al.
# Submitted via: CDex 1.30Release
#
DISCID=2a11b514
DTITLE=Smokie - The Ultimate Collection
DYEAR=2000
DGENRE=Country
TTITLE0=Living Next Door to Alice
TTITLE1=Oh Carol
TTITLE2=Mexican Girl
TTITLE3=If You Think You Know How to Love Me
TTITLE4=I'll Meet You at Midnight
TTITLE5=Lay Back in the Arms of Someone
TTITLE6=Don't Play Your  Rock 'n Roll to Me
TTITLE7=Needles and Pins
TTITLE8=Have You Ever Seen the Rain
TTITLE9=The Wrong Reasons
TTITLE10=A Few Dollars More
TTITLE11=Take Good Care of my Baby
TTITLE12=Boulevard of Broken Dreams
TTITLE13=Wild Angels
TTITLE14=Something's been Making me Blue
TTITLE15=It's Your Life
TTITLE16=What Can I Do?
TTITLE17=Desperate Measures
TTITLE18=Rock 'n Roll Rodeo
TTITLE19=Naked Love
EXTD=YEAR: 2000 ID3G:   2
EXTT0=
EXTT1=
EXTT2=
EXTT3=
EXTT4=
EXTT5=
EXTT6=
EXTT7=
EXTT8=
EXTT9=
EXTT10=
EXTT11=
EXTT12=
EXTT13=
EXTT14=
EXTT15=
EXTT16=
EXTT17=
EXTT18=
EXTT19=
PLAYORDER=
